<svg xmlns="http://www.w3.org/2000/svg" version="1.0" width="229.000000pt" height="254.000000pt" viewBox="0 0 229.000000 254.000000" preserveAspectRatio="xMidYMid meet">  <g transform="translate(0.000000,254.000000) scale(0.100000,-0.100000)" fill="#ffffff" stroke="none"> <path d="M1042 2474 c-107 -53 -180 -180 -189 -329 -3 -44 0 -136 6 -204 6 -69 8 -127 6 -129 -3 -3 -19 7 -37 22 -78 64 -158 108 -247 138 -86 28 -109 32 -216 32 -134 1 -178 -12 -247 -73 -90 -79 -66 -254 56 -416 97 -129 345 -358 480 -444 48 -30 50 -30 69 -13 11 9 26 32 34 50 18 42 17 43 -106 134 -108 81 -330 298 -379 371 -119 179 -104 242 62 254 247 18 472 -135 532 -361 21 -78 18 -216 -7 -300 -61 -208 -187 -365 -362 -452 -90 -44 -104 -48 -165 -47 -37 1 -79 6 -95 12 -82 32 -44 148 111 340 57 70 63 96 32 129 -33 35 -65 28 -117 -25 -208 -215 -261 -429 -132 -537 44 -38 85 -54 151 -62 117 -13 318 66 441 176 38 33 73 60 78 60 6 0 7 -22 2 -62 -25 -195 12 -368 109 -513 84 -124 171 -171 269 -145 65 17 156 113 208 221 70 145 137 420 156 644 8 86 -5 109 -59 109 -53 0 -67 -20 -76 -111 -25 -239 -98 -513 -168 -628 -37 -61 -83 -105 -109 -105 -57 0 -155 137 -188 261 -17 63 -19 184 -4 248 31 134 138 261 279 329 156 76 326 88 500 38 269 -78 440 -313 273 -377 -37 -14 -140 -11 -254 7 -113 18 -141 13 -161 -31 -14 -30 -1 -48 53 -76 45 -22 189 -49 268 -49 68 0 163 23 208 51 18 12 46 42 61 67 36 63 38 154 3 225 -54 111 -163 212 -288 268 -38 17 -87 39 -110 50 -24 10 -43 23 -43 29 0 6 34 26 75 46 192 91 337 253 381 424 20 79 12 136 -26 188 -100 139 -376 131 -788 -23 -138 -52 -224 -94 -237 -116 -10 -16 2 -52 25 -77 26 -27 40 -25 170 30 215 91 372 132 545 143 112 8 145 0 171 -40 26 -40 5 -116 -56 -203 -196 -279 -525 -316 -769 -87 -164 155 -252 364 -238 565 14 198 126 312 213 218 43 -47 57 -71 109 -195 25 -61 55 -119 65 -128 25 -23 64 -13 86 21 16 23 16 29 0 87 -26 94 -100 236 -157 300 -88 99 -160 119 -257 71z m83 -1038 c40 -37 153 -115 214 -149 18 -9 31 -22 29 -29 -2 -6 -42 -23 -89 -38 -89 -28 -175 -69 -249 -119 -42 -29 -45 -30 -48 -11 -2 10 6 62 17 114 15 66 21 132 21 213 l0 117 33 -30 c17 -17 50 -47 72 -68z" fill="#000000"/> </g> </svg>